<svg version="1.1" xmlns="http://www.w3.org/2000/svg" xmlns:xlink="http://www.w3.org/1999/xlink" width="26.8002" height="22.0918">  <g>   <rect height="22.0918" opacity="0" width="26.8002" x="0" y="0"/>   <path d="M4.84412 21.918C6.08532 21.918 6.72419 21.1139 7.07321 20.0213L12.5498 2.37791L25.1947 2.37791C25.9426 2.37791 26.4388 1.89862 26.4388 1.18007C26.4388 0.471285 25.9426 0 25.1947 0L12.4871 0C11.1527 0 10.5572 0.516402 10.1887 1.67518L4.99217 18.9166L4.76795 18.9166L2.441 10.768C2.24158 10.0643 1.86756 9.72579 1.21737 9.72579C0.509567 9.72579 0 10.2316 0 10.8908C0 11.1451 0.0558591 11.3721 0.133788 11.6111L2.72793 20.1244C3.06367 21.1965 3.67929 21.918 4.84412 21.918ZM14.9759 19.5883C15.4316 19.5883 15.6736 19.4269 16.0273 18.9191L18.8209 14.8668L18.8883 14.8668L21.6553 18.9191C22.0019 19.4234 22.2474 19.5883 22.7066 19.5883C23.3299 19.5883 23.775 19.1742 23.775 18.5873C23.775 18.3045 23.6988 18.0918 23.5056 17.8295L20.257 13.3457L23.5297 8.84236C23.7326 8.57205 23.8088 8.34959 23.8088 8.08455C23.8088 7.53143 23.3717 7.11737 22.7679 7.11737C22.315 7.11737 22.0535 7.28221 21.7344 7.76073L19.0287 11.8211L18.9613 11.8211L16.1935 7.75096C15.8656 7.2787 15.6058 7.11737 15.1324 7.11737C14.5367 7.11737 14.0658 7.55721 14.0658 8.13612C14.0658 8.42694 14.1482 8.63963 14.3689 8.92947L17.5047 13.3021L14.2205 17.8891C14.0193 18.1514 13.9529 18.348 13.9529 18.6309C13.9529 19.1742 14.3883 19.5883 14.9759 19.5883Z" fill="#000000" fill-opacity="1.05"/>  </g> </svg>